<svg width="64" height="67" viewBox="0 0 64 67" fill="none" xmlns="http://www.w3.org/2000/svg">
<g id="24 / call / call-phone" filter="url(#filter0_d)">
<path id="icon" fill-rule="evenodd" clip-rule="evenodd" d="M27.9509 22.2345C29.3325 20.3726 29.8279 18.4103 28.2653 16.6782C24.7588 11.7716 22.4005 8.7374 20.9213 7.27618C18.1092 4.49823 13.4831 4.87399 11.0476 7.27381C9.73944 8.56277 9.29658 9.00541 7.9534 10.3697C0.471661 17.8555 5.03441 33.6801 17.1639 45.8215C29.2906 57.9601 45.1137 62.5253 52.6111 55.0237C53.8506 53.8288 54.9 52.7788 55.7276 51.904C58.1144 49.3813 58.4767 44.9593 55.7119 42.0865C54.2944 40.6137 51.401 38.3693 46.288 34.7119C44.722 33.3116 42.8652 33.6151 41.1629 34.7319C40.3441 35.2691 39.7482 35.8126 38.6229 36.9389L36.5796 38.9834C36.3105 39.2526 32.6561 37.4225 29.1087 33.8716C25.5594 30.3188 23.7305 26.6642 23.9984 26.3964C24.5508 25.8441 25.2324 25.1621 26.0431 24.3505C26.4001 23.9932 26.5708 23.8202 26.7897 23.5901C27.2457 23.1109 27.6233 22.6759 27.9509 22.2345ZM40.3488 42.7547L42.3925 40.7098C43.0118 40.0899 43.4131 39.7088 43.7396 39.446C48.2187 42.6626 50.8128 44.6851 51.8723 45.786C52.5085 46.447 52.4096 47.6531 51.8566 48.2376C51.0913 49.0465 50.097 50.0414 48.8768 51.2183C44.0287 56.0684 31.2559 52.3833 20.9338 42.0511C10.6085 31.7157 6.92518 18.941 11.7367 14.1268C13.0745 12.7681 13.4983 12.3445 14.7878 11.0739C15.2713 10.5975 16.5882 10.4906 17.1764 11.0715C18.3152 12.1965 20.4277 14.9015 23.5354 19.2304C23.3745 19.4301 23.1736 19.6558 22.929 19.9128C22.7496 20.1014 22.6 20.253 22.2732 20.5802C21.463 21.3912 20.7821 22.0725 20.2305 22.6241C16.7554 26.0988 19.7149 32.0127 25.3388 37.6421C30.9588 43.2677 36.8749 46.2305 40.3488 42.7547Z" fill="black"/>
</g>
<defs>
<filter id="filter0_d" x="-4" y="0" width="72" height="72" filterUnits="userSpaceOnUse" color-interpolation-filters="sRGB">
<feFlood flood-opacity="0" result="BackgroundImageFix"/>
<feColorMatrix in="SourceAlpha" type="matrix" values="0 0 0 0 0 0 0 0 0 0 0 0 0 0 0 0 0 0 127 0"/>
<feOffset dy="4"/>
<feGaussianBlur stdDeviation="2"/>
<feColorMatrix type="matrix" values="0 0 0 0 0 0 0 0 0 0 0 0 0 0 0 0 0 0 0.25 0"/>
<feBlend mode="normal" in2="BackgroundImageFix" result="effect1_dropShadow"/>
<feBlend mode="normal" in="SourceGraphic" in2="effect1_dropShadow" result="shape"/>
</filter>
</defs>
</svg>
