<svg width="64" height="64" viewBox="0 0 64 64" fill="none" xmlns="http://www.w3.org/2000/svg">
<path fill-rule="evenodd" clip-rule="evenodd" d="M0 32C0 14.3269 14.3269 0 32 0C49.6731 0 64 14.3269 64 32C64 49.6731 49.6731 64 32 64C14.3269 64 0 49.6731 0 32ZM32.0016 14.9333C27.3665 14.9333 26.7848 14.9536 24.9644 15.0364C23.1475 15.1196 21.9073 15.4073 20.8221 15.8293C19.6996 16.2653 18.7474 16.8484 17.7988 17.7974C16.8494 18.746 16.2663 19.6982 15.829 20.8203C15.4059 21.9059 15.1179 23.1464 15.0361 24.9626C14.9547 26.7831 14.9333 27.3651 14.9333 32.0002C14.9333 36.6353 14.954 37.2152 15.0364 39.0356C15.12 40.8525 15.4076 42.0927 15.8293 43.1779C16.2656 44.3004 16.8487 45.2526 17.7977 46.2012C18.746 47.1506 19.6982 47.7351 20.82 48.171C21.9058 48.5931 23.1464 48.8807 24.9629 48.9639C26.7834 49.0468 27.3648 49.067 31.9995 49.067C36.6349 49.067 37.2148 49.0468 39.0353 48.9639C40.8522 48.8807 42.0938 48.5931 43.1797 48.171C44.3018 47.7351 45.2526 47.1506 46.2009 46.2012C47.1502 45.2526 47.7333 44.3004 48.1707 43.1782C48.5902 42.0927 48.8782 40.8522 48.9636 39.036C49.0453 37.2155 49.0667 36.6353 49.0667 32.0002C49.0667 27.3651 49.0453 26.7834 48.9636 24.9629C48.8782 23.146 48.5902 21.9059 48.1707 20.8207C47.7333 19.6982 47.1502 18.746 46.2009 17.7974C45.2515 16.848 44.3022 16.2649 43.1786 15.8293C42.0906 15.4073 40.8497 15.1196 39.0328 15.0364C37.2123 14.9536 36.6328 14.9333 31.9963 14.9333H32.0016Z" fill="black"/>
<path fill-rule="evenodd" clip-rule="evenodd" d="M30.4706 18.0089C30.925 18.0082 31.432 18.0089 32.0016 18.0089C36.5584 18.0089 37.0985 18.0253 38.898 18.1071C40.562 18.1831 41.4652 18.4612 42.0668 18.6948C42.8632 19.0041 43.4311 19.3739 44.028 19.9713C44.6254 20.5686 44.9952 21.1375 45.3052 21.9339C45.5388 22.5348 45.8172 23.438 45.8929 25.102C45.9747 26.9011 45.9925 27.4416 45.9925 31.9963C45.9925 36.551 45.9747 37.0914 45.8929 38.8906C45.8169 40.5546 45.5388 41.4577 45.3052 42.0586C44.9959 42.855 44.6254 43.4222 44.028 44.0191C43.4307 44.6165 42.8636 44.9863 42.0668 45.2956C41.4659 45.5303 40.562 45.8076 38.898 45.8837C37.0989 45.9655 36.5584 45.9833 32.0016 45.9833C27.4444 45.9833 26.9043 45.9655 25.1052 45.8837C23.4412 45.8069 22.538 45.5289 21.9361 45.2952C21.1396 44.9859 20.5707 44.6161 19.9734 44.0188C19.376 43.4215 19.0063 42.854 18.6962 42.0572C18.4626 41.4563 18.1842 40.5532 18.1085 38.8891C18.0267 37.09 18.0103 36.5496 18.0103 31.992C18.0103 27.4344 18.0267 26.8968 18.1085 25.0977C18.1846 23.4337 18.4626 22.5306 18.6962 21.929C19.0056 21.1325 19.376 20.5636 19.9734 19.9663C20.5707 19.3689 21.1396 18.9992 21.9361 18.6891C22.5377 18.4544 23.4412 18.1771 25.1052 18.1007C26.6796 18.0295 27.2897 18.0082 30.4706 18.0047V18.0089ZM41.1117 20.8427C39.9811 20.8427 39.0637 21.759 39.0637 22.89C39.0637 24.0207 39.9811 24.9381 41.1117 24.9381C42.2424 24.9381 43.1598 24.0207 43.1598 22.89C43.1598 21.7594 42.2424 20.8427 41.1117 20.8427ZM32.0016 23.2356C27.1614 23.2356 23.2371 27.16 23.2371 32.0002C23.2371 36.8404 27.1614 40.7629 32.0016 40.7629C36.8418 40.7629 40.7647 36.8404 40.7647 32.0002C40.7647 27.16 36.8418 23.2356 32.0016 23.2356Z" fill="black"/>
<path fill-rule="evenodd" clip-rule="evenodd" d="M32.0016 26.3112C35.1433 26.3112 37.6906 28.8581 37.6906 32.0002C37.6906 35.1419 35.1433 37.6891 32.0016 37.6891C28.8595 37.6891 26.3127 35.1419 26.3127 32.0002C26.3127 28.8581 28.8595 26.3112 32.0016 26.3112Z" fill="black"/>
</svg>
