<svg width="64" height="64" viewBox="0 0 64 64" fill="none" xmlns="http://www.w3.org/2000/svg">
<path fill-rule="evenodd" clip-rule="evenodd" d="M64 32C64 49.6731 49.6731 64 32 64C14.3269 64 0 49.6731 0 32C0 14.3269 14.3269 0 32 0C49.6731 0 64 14.3269 64 32ZM21.4287 29.0687C18.2231 30.4683 14.9295 31.9064 11.9177 33.5653C10.345 34.7168 12.4352 35.5313 14.3961 36.2953C14.7079 36.4168 15.0163 36.5369 15.3063 36.6569C15.5476 36.7312 15.7929 36.8093 16.0416 36.8885C18.2225 37.5833 20.6543 38.3581 22.7716 37.1927C26.2497 35.1947 29.532 32.8848 32.8119 30.5767C33.8864 29.8204 34.9607 29.0644 36.0415 28.3196C36.0921 28.2872 36.1492 28.2501 36.2117 28.2097C37.1324 27.6128 39.2032 26.2705 38.4372 28.1201C36.626 30.1009 34.6859 31.8543 32.7353 33.6173C31.4207 34.8055 30.1012 35.998 28.8132 37.2673C27.6915 38.1788 26.5265 40.0117 27.7827 41.2881C30.6759 43.3135 33.6143 45.2897 36.5509 47.2649C37.5065 47.9076 38.4621 48.5503 39.4157 49.1945C41.032 50.4849 43.558 49.4411 43.9133 47.4247C44.0713 46.4971 44.23 45.5696 44.3887 44.642C45.2655 39.5157 46.1425 34.3876 46.9173 29.2447C47.0227 28.4379 47.142 27.6312 47.2615 26.8241C47.5509 24.868 47.8408 22.9095 47.9313 20.9428C47.698 18.9801 45.3183 19.4117 43.994 19.8531C37.1871 22.4432 30.4481 25.2253 23.7359 28.0565C22.9755 28.3933 22.2047 28.7299 21.4287 29.0687Z" fill="black"/>
</svg>
