<svg width="5" height="18" viewBox="0 0 5 18" fill="none" xmlns="http://www.w3.org/2000/svg">
<path d="M2.28966 13.9145C1.37817 13.9145 0.608622 14.6859 0.608622 15.676C0.608622 16.6661 1.37817 17.4375 2.28966 17.4375C3.20116 17.4375 3.9707 16.6661 3.9707 15.676C3.9707 14.6859 3.20116 13.9145 2.28966 13.9145Z" stroke="black"/>
<path d="M2.28966 7.58246C1.37817 7.58246 0.608622 8.35389 0.608622 9.34397C0.608622 10.334 1.37817 11.1055 2.28966 11.1055C3.20116 11.1055 3.9707 10.334 3.9707 9.34397C3.9707 8.35389 3.20116 7.58246 2.28966 7.58246Z" stroke="black"/>
<path d="M2.28966 1.25043C1.37817 1.25043 0.608622 2.02186 0.608622 3.01194C0.608622 4.00201 1.37817 4.77344 2.28966 4.77344C3.20116 4.77344 3.9707 4.00201 3.9707 3.01194C3.9707 2.02186 3.20116 1.25043 2.28966 1.25043Z" stroke="black"/>
</svg>
