<svg width="13" height="10" viewBox="0 0 13 10" fill="none" xmlns="http://www.w3.org/2000/svg">
<path fill-rule="evenodd" clip-rule="evenodd" d="M10.9646 0.334537C11.1875 0.121012 11.4884 0.000841207 11.8022 4.39959e-06C12.1161 -0.000832408 12.4176 0.117732 12.6417 0.330065C12.8658 0.542398 12.9945 0.831439 12.9998 1.1347C13.0052 1.43795 12.8868 1.73106 12.6703 1.95065L6.31264 9.63106C6.20337 9.7448 6.07149 9.83607 5.92489 9.89943C5.77828 9.96279 5.61996 9.99693 5.4594 9.9998C5.29883 10.0027 5.13931 9.97423 4.99038 9.91616C4.84145 9.85809 4.70617 9.77159 4.59262 9.66184L0.380169 5.58922C0.262815 5.48354 0.168688 5.3561 0.103404 5.2145C0.0381199 5.0729 0.00301561 4.92004 0.000185889 4.76504C-0.00264383 4.61004 0.026859 4.45608 0.0869339 4.31234C0.147009 4.1686 0.236425 4.03803 0.349849 3.92841C0.463272 3.8188 0.598379 3.73238 0.74711 3.67432C0.895841 3.61626 1.05515 3.58775 1.21553 3.59049C1.37591 3.59322 1.53408 3.62715 1.68059 3.69024C1.82711 3.75333 1.95898 3.8443 2.06833 3.95772L5.40326 7.17918L10.9344 0.368399C10.9443 0.356476 10.9549 0.345166 10.9662 0.334537H10.9646Z" fill="#111111"/>
</svg>
