<svg width="18" height="25" viewBox="0 0 18 25" fill="none" xmlns="http://www.w3.org/2000/svg">
<path d="M8.90411 25L8.35616 24.3836C8.0137 24.0411 0 14.589 0 8.90411C0 3.9726 3.9726 0 8.90411 0C13.8356 0 17.8082 3.9726 17.8082 8.90411C17.8082 14.589 9.79452 24.0411 9.45205 24.4521L8.90411 25ZM8.90411 1.36986C4.72603 1.36986 1.36986 4.72603 1.36986 8.90411C1.36986 13.2877 7.12329 20.6849 8.90411 22.8767C10.6849 20.6849 16.4384 13.2877 16.4384 8.90411C16.4384 4.72603 13.0822 1.36986 8.90411 1.36986Z" fill="#3498DB"/>
<path d="M8.90411 12.3288C6.9863 12.3288 5.47945 10.8219 5.47945 8.90411C5.47945 6.9863 6.9863 5.47945 8.90411 5.47945C10.8219 5.47945 12.3288 6.9863 12.3288 8.90411C12.3288 10.8219 10.8219 12.3288 8.90411 12.3288ZM8.90411 6.84932C7.73973 6.84932 6.84932 7.73973 6.84932 8.90411C6.84932 10.0685 7.73973 10.9589 8.90411 10.9589C10.0685 10.9589 10.9589 10.0685 10.9589 8.90411C10.9589 7.73973 10.0685 6.84932 8.90411 6.84932Z" fill="#3498DB"/>
</svg>
