<svg width="25" height="25" viewBox="0 0 25 25" fill="none" xmlns="http://www.w3.org/2000/svg">
<path d="M22.1517 3.65172e-06C21.5182 3.65172e-06 20.8847 0.241193 20.4039 0.721962L17.4229 3.70305L2.42146 18.7034L0 25L6.29804 22.5801L6.35913 22.5174L24.2789 4.59705C25.2404 3.63552 25.2404 2.06457 24.2789 1.10464L23.8962 0.721958C23.4171 0.241189 22.7835 0 22.1517 0V3.65172e-06ZM22.1517 0.818436C22.5713 0.818436 22.991 0.980836 23.3158 1.30403L23.6968 1.68511C24.3432 2.3331 24.3432 3.3686 23.6968 4.01499L23.356 4.35587L20.6451 1.64491L20.9859 1.30403C21.3091 0.980836 21.7304 0.818436 22.1517 0.818436ZM20.063 2.22698L22.7739 4.93794L21.2979 6.41401L18.587 3.70305L20.063 2.22698ZM18.005 4.28512L20.7158 6.99608L6.33823 21.3741C6.26588 21.1474 6.15333 20.9062 5.94752 20.7004C5.64524 20.3981 5.26417 20.2872 4.96511 20.2277C4.87025 20.2084 4.87024 20.218 4.79307 20.2084C4.78342 20.1312 4.79307 20.1312 4.77377 20.0363C4.71428 19.7373 4.60334 19.3562 4.30106 19.0539C4.09525 18.8481 3.85407 18.7355 3.62736 18.6632L18.005 4.28512ZM18.005 5.34957C17.7782 5.34957 17.5933 5.53448 17.5933 5.76119C17.5933 5.98791 17.7782 6.17282 18.005 6.17282C18.2317 6.17282 18.4166 5.98791 18.4166 5.76119C18.4166 5.53448 18.2317 5.34957 18.005 5.34957ZM16.7701 6.58445C16.5434 6.58445 16.3585 6.76936 16.3585 6.99608C16.3585 7.2228 16.5434 7.40771 16.7701 7.40771C16.9968 7.40771 17.1817 7.2228 17.1817 6.99608C17.1817 6.76936 16.9968 6.58445 16.7701 6.58445ZM15.5353 7.81934C15.3086 7.81934 15.1236 8.00425 15.1236 8.23096C15.1236 8.45768 15.3086 8.64259 15.5353 8.64259C15.762 8.64259 15.9469 8.45768 15.9469 8.23096C15.9469 8.00425 15.762 7.81934 15.5353 7.81934ZM14.3004 9.05422C14.0737 9.05422 13.8888 9.23913 13.8888 9.46585C13.8888 9.69257 14.0737 9.87748 14.3004 9.87748C14.5271 9.87748 14.712 9.69257 14.712 9.46585C14.712 9.23913 14.5271 9.05422 14.3004 9.05422ZM13.0656 10.2891C12.8389 10.2891 12.654 10.474 12.654 10.7007C12.654 10.9275 12.8389 11.1124 13.0656 11.1124C13.2923 11.1124 13.4772 10.9275 13.4772 10.7007C13.4772 10.474 13.2923 10.2891 13.0656 10.2891ZM11.8307 11.524C11.604 11.524 11.4191 11.7089 11.4191 11.9356C11.4191 12.1623 11.604 12.3472 11.8307 12.3472C12.0574 12.3472 12.2423 12.1623 12.2423 11.9356C12.2423 11.7089 12.0574 11.524 11.8307 11.524ZM10.5959 12.7589C10.3692 12.7589 10.1843 12.9438 10.1843 13.1705C10.1843 13.3972 10.3692 13.5821 10.5959 13.5821C10.8226 13.5821 11.0075 13.3972 11.0075 13.1705C11.0075 12.9438 10.8226 12.7589 10.5959 12.7589ZM9.36103 13.9938C9.13432 13.9938 8.94942 14.1787 8.94942 14.4054C8.94942 14.6321 9.13432 14.817 9.36103 14.817C9.58774 14.817 9.77265 14.6321 9.77265 14.4054C9.77265 14.1787 9.58774 13.9938 9.36103 13.9938ZM8.12619 15.2287C7.89948 15.2287 7.71457 15.4136 7.71457 15.6403C7.71457 15.867 7.89948 16.0519 8.12619 16.0519C8.35289 16.0519 8.5378 15.867 8.5378 15.6403C8.5378 15.4136 8.35289 15.2287 8.12619 15.2287ZM6.89134 16.4635C6.66463 16.4635 6.47972 16.6484 6.47972 16.8752C6.47972 17.1019 6.66463 17.2868 6.89134 17.2868C7.11805 17.2868 7.30295 17.1019 7.30295 16.8752C7.30295 16.6484 7.11805 16.4635 6.89134 16.4635ZM5.65649 17.6984C5.42978 17.6984 5.24488 17.8833 5.24488 18.11C5.24488 18.3368 5.42978 18.5217 5.65649 18.5217C5.8832 18.5217 6.06811 18.3368 6.06811 18.11C6.06811 17.8833 5.8832 17.6984 5.65649 17.6984ZM3.04692 19.3723C3.08551 19.3787 3.11445 19.3803 3.15786 19.3883C3.37332 19.4318 3.60967 19.5266 3.71901 19.636C3.82834 19.7453 3.92321 19.9817 3.96662 20.1971C4.01003 20.4126 4.01003 20.5798 4.01003 20.5798V20.9914H4.42165C4.42165 20.9914 4.58887 20.9914 4.80432 21.0349C5.01978 21.0783 5.25613 21.1731 5.36547 21.2825C5.4748 21.3918 5.56967 21.6282 5.61308 21.8437C5.62112 21.8871 5.62273 21.916 5.62916 21.9546L2.7768 23.0512L1.95035 22.2247L3.04692 19.3723Z" fill="#BDBDBD"/>
</svg>
