<svg width="22" height="18" viewBox="0 0 22 18" fill="none" xmlns="http://www.w3.org/2000/svg">
<path d="M12.5663 0.0660409C12.3117 0.0988623 12.1223 0.32451 12.1242 0.591183V4.3C6.30889 4.48462 3.17329 7.68471 1.62622 10.8643C0.0574333 14.0869 0.00218048 17.2296 0.000206802 17.3301V17.3629V17.3957C-0.00768645 17.685 0.211351 17.9291 0.489588 17.9373C0.767826 17.9455 1.00265 17.7178 1.01054 17.4286V17.3957C1.01449 17.3465 1.12697 15.7567 2.57341 14.0644C3.99419 12.4048 6.7667 10.7309 12.1242 10.6181V14.2449C12.1242 14.4459 12.2347 14.6305 12.4104 14.7187C12.586 14.8069 12.7932 14.7823 12.9451 14.6551L21.0278 7.8283C21.1482 7.72778 21.2173 7.57804 21.2173 7.41803C21.2173 7.25803 21.1482 7.10828 21.0278 7.00776L12.9451 0.180916C12.8386 0.0906567 12.7024 0.0496302 12.5663 0.0660409ZM13.1346 1.6907L19.907 7.41803L13.1346 13.1454V10.0437C13.1346 9.7545 12.9076 9.5186 12.6294 9.5186C6.69171 9.5186 3.491 11.4161 1.81565 13.3751C1.75251 13.449 1.71699 13.5146 1.65779 13.5885C1.87091 12.8664 2.15112 12.0951 2.52605 11.3238C4.00011 8.296 6.81406 5.31746 12.6294 5.31746C12.9076 5.31746 13.1346 5.08156 13.1346 4.79232V1.6907Z" fill="black"/>
</svg>
