<svg width="68" height="62" viewBox="0 0 68 62" fill="none" xmlns="http://www.w3.org/2000/svg">
<path d="M11.6571 0C5.23069 0 0 5.38453 0 12V50C0 56.6155 5.23069 62 11.6571 62H56.3429C62.7693 62 68 56.6155 68 50V12C68 5.38453 62.7693 0 56.3429 0H11.6571ZM11.6571 2H56.3429C61.7193 2 66.0571 6.46546 66.0571 12V50C66.0571 55.5345 61.7193 60 56.3429 60H11.6571C6.28074 60 1.94286 55.5345 1.94286 50V12C1.94286 6.46546 6.28074 2 11.6571 2ZM11.6571 5C7.90724 5 4.85714 8.1398 4.85714 12V37.4297C4.84858 37.4834 4.84858 37.5381 4.85714 37.5918V50C4.85714 53.8602 7.90724 57 11.6571 57H50.9317C50.9838 57.0088 51.037 57.0088 51.0892 57H56.3429C60.0928 57 63.1429 53.8602 63.1429 50V45.5957C63.1523 45.5395 63.1523 45.482 63.1429 45.4258V34.5C63.1453 34.3197 63.0533 34.152 62.902 34.0611C62.7507 33.9702 62.5636 33.9702 62.4123 34.0611C62.261 34.152 62.169 34.3197 62.1714 34.5V44.293L50.0855 31.8516C49.5349 31.2847 48.8084 31 48.0857 31C47.363 31 46.6366 31.2847 46.0859 31.8516L36.9143 41.293L20.9426 24.8516C20.392 24.2847 19.6656 24 18.9429 24C18.2202 24 17.4937 24.2847 16.9431 24.8516L5.82857 36.293V12C5.82857 8.6802 8.43219 6 11.6571 6H51.9714C52.1466 6.00255 52.3095 5.90781 52.3978 5.75206C52.4861 5.59631 52.4861 5.40369 52.3978 5.24794C52.3095 5.09219 52.1466 4.99745 51.9714 5H11.6571ZM50.0286 13C48.2881 13 46.9219 13.6899 46.0233 14.7305C45.1248 15.7711 44.6857 17.1389 44.6857 18.5C44.6857 19.8611 45.1248 21.2289 46.0233 22.2695C46.9219 23.3101 48.2881 24 50.0286 24C52.9736 24 55.3714 21.5316 55.3714 18.5C55.3714 15.4684 52.9736 13 50.0286 13ZM50.0286 14C52.4486 14 54.4 16.0088 54.4 18.5C54.4 20.9912 52.4486 23 50.0286 23C48.531 23 47.4686 22.4399 46.7481 21.6055C46.0276 20.7711 45.6571 19.6389 45.6571 18.5C45.6571 17.3611 46.0276 16.2289 46.7481 15.3945C47.4686 14.5601 48.531 14 50.0286 14ZM62.6496 21.9922C62.5207 21.9943 62.398 22.0489 62.3083 22.1441C62.2187 22.2394 62.1694 22.3674 62.1714 22.5V24.5C62.169 24.6803 62.261 24.848 62.4123 24.9389C62.5636 25.0298 62.7507 25.0298 62.902 24.9389C63.0533 24.848 63.1453 24.6803 63.1429 24.5V22.5C63.1449 22.3647 63.0936 22.2343 63.0006 22.1386C62.9077 22.0429 62.781 21.9901 62.6496 21.9922V21.9922ZM18.9429 25C19.4189 25 19.8914 25.1834 20.2558 25.5586L36.5026 42.2832C36.5394 42.3401 36.5872 42.3886 36.643 42.4258L49.8275 56H11.6571C8.43219 56 5.82857 53.3198 5.82857 50V37.707L17.6299 25.5586C17.9944 25.1834 18.4668 25 18.9429 25ZM62.6496 26.9922C62.5207 26.9943 62.398 27.0489 62.3083 27.1442C62.2187 27.2394 62.1694 27.3674 62.1714 27.5V31.5C62.169 31.6803 62.261 31.848 62.4123 31.9389C62.5636 32.0298 62.7507 32.0298 62.902 31.9389C63.0533 31.848 63.1453 31.6803 63.1429 31.5V27.5C63.1449 27.3647 63.0936 27.2343 63.0006 27.1386C62.9077 27.0429 62.781 26.9901 62.6496 26.9922V26.9922ZM48.0857 32C48.5618 32 49.0342 32.1834 49.3987 32.5586L62.1714 45.707V50C62.1714 53.3198 59.5678 56 56.3429 56H51.2011L37.6011 42L46.7728 32.5586C47.1372 32.1834 47.6097 32 48.0857 32Z" fill="#3498DB"/>
</svg>
