<svg width="26" height="26" viewBox="0 0 26 26" fill="none" xmlns="http://www.w3.org/2000/svg">
<path d="M4.82862 2.01801e-06C4.25747 2.01801e-06 3.68648 0.212723 3.25281 0.637639C2.87903 1.00387 2.45182 1.42902 2.12391 1.75724C1.73477 2.14632 1.4402 2.61588 1.26127 3.13132C1.26098 3.13216 0.969251 3.96904 0.675059 4.81178C0.527889 5.23336 0.37965 5.65637 0.268047 5.97616C0.156574 6.29557 0.0941118 6.47464 0.0772362 6.52423C-0.0259461 6.82607 -0.0267448 7.15533 0.0808648 7.46043C0.0808648 7.46066 0.0808648 7.4609 0.0808648 7.46114C1.05591 10.2204 3.67076 14.5733 7.39838 18.2256C7.40737 18.2344 7.41682 18.2427 7.42667 18.2505C11.1486 21.8885 15.5756 24.4423 18.3848 25.3953C18.6968 25.5014 19.0333 25.4998 19.341 25.3989C19.3916 25.3823 19.5744 25.3211 19.9004 25.2119C20.2268 25.1025 20.6585 24.9573 21.0888 24.8131C21.9489 24.5249 22.803 24.239 22.8039 24.2387L22.8046 24.238C23.3299 24.0627 23.8094 23.7747 24.2063 23.3935C24.5413 23.0722 24.9752 22.6537 25.349 22.2874C26.2164 21.4376 26.2164 20.0493 25.349 19.1995L22.0058 15.9239C21.1387 15.0743 19.7212 15.074 18.8542 15.9239C18.4157 16.3535 16.8171 17.9294 15.5314 19.1966C13.6291 18.2381 11.5882 17.1497 10.0429 15.6353C10.0426 15.6353 10.0424 15.6353 10.0421 15.6353C8.49681 14.1211 7.38565 12.1207 6.40733 10.2569C7.70066 8.9972 9.3091 7.43084 9.74758 7.00121C10.6148 6.15148 10.6146 4.76284 9.74758 3.91326V3.91255L6.40443 0.637637C5.97075 0.212737 5.39976 0 4.82861 0L4.82862 2.01801e-06ZM4.82862 0.722941C5.20804 0.722941 5.58737 0.866403 5.87916 1.1523L9.22232 4.42792C9.80574 4.99926 9.80585 5.91481 9.22232 6.48655C9.19098 6.51726 9.02418 6.67935 8.98145 6.72113L6.26005 4.05472C6.22506 4.01928 6.17689 3.99927 6.12656 3.99927C6.05088 3.99928 5.98278 4.04428 5.9544 4.11301C5.92602 4.18175 5.94304 4.26048 5.99742 4.31205L8.71809 6.97775C8.03837 7.64148 6.82483 8.82439 5.68545 9.9342C5.57095 10.0457 5.54309 10.217 5.61652 10.3579C6.62704 12.2925 7.80072 14.4684 9.51688 16.1499C11.2331 17.8318 13.4539 18.9814 15.4283 19.9715C15.5721 20.0434 15.7469 20.0161 15.8608 19.9039C17.1817 18.602 18.9191 16.8896 19.3795 16.4385C19.9626 15.8669 20.8975 15.8669 21.4806 16.4385L24.8237 19.7141C25.4073 20.2859 25.4073 21.201 24.8237 21.7728C24.745 21.85 24.665 21.926 24.5821 22.0066L21.8615 19.3409C21.8265 19.3055 21.7783 19.2855 21.728 19.2855C21.6523 19.2855 21.5842 19.3305 21.5558 19.3992C21.5274 19.468 21.5445 19.5467 21.5988 19.5983L24.318 22.2626C24.0994 22.4742 23.872 22.6956 23.6869 22.8732C23.6869 22.8734 23.6869 22.8736 23.6869 22.8739C23.3694 23.1787 22.9859 23.4087 22.5645 23.5492C22.5645 23.5492 21.7085 23.8366 20.8479 24.125C20.4177 24.2692 19.9866 24.4137 19.6603 24.5231C19.3339 24.6324 19.0744 24.7187 19.1052 24.7086C19.105 24.7086 19.1048 24.7086 19.1045 24.7086C18.9487 24.7598 18.7832 24.7598 18.6286 24.7072C18.6283 24.7072 18.6281 24.7072 18.6279 24.7072C15.9746 23.8071 11.5644 21.2781 7.92366 17.711C4.28295 14.1438 1.70184 9.8227 0.783166 7.223C0.729548 7.07096 0.729623 6.90834 0.781714 6.75597C0.781714 6.75573 0.781714 6.75549 0.781714 6.75525C0.771428 6.78549 0.859484 6.5312 0.971074 6.21145C1.08266 5.89171 1.23019 5.46935 1.37736 5.04778C1.67169 4.20464 1.96503 3.3659 1.96503 3.3659C2.10846 2.95271 2.34304 2.57729 2.65426 2.26621C2.6545 2.26621 2.65474 2.26621 2.65499 2.26621C2.98159 1.9393 3.40745 1.51544 3.77808 1.1523C4.06985 0.86642 4.44919 0.722941 4.82862 0.722941H4.82862ZM4.64071 2.54344C4.56503 2.54346 4.49693 2.58845 4.46855 2.65719C4.44017 2.72592 4.45719 2.80465 4.51157 2.85622L5.25449 3.58413C5.30108 3.63167 5.37025 3.65081 5.43533 3.63419C5.50042 3.61756 5.55125 3.56776 5.56821 3.50399C5.58518 3.44022 5.56564 3.37245 5.51713 3.3268L4.7742 2.59889C4.73921 2.56345 4.69104 2.54344 4.64071 2.54344H4.64071ZM20.2421 17.8297C20.1664 17.8297 20.0983 17.8747 20.07 17.9434C20.0416 18.0121 20.0586 18.0909 20.113 18.1424L20.8559 18.8704C20.9025 18.9179 20.9717 18.937 21.0367 18.9204C21.1018 18.9038 21.1527 18.854 21.1696 18.7902C21.1866 18.7264 21.1671 18.6587 21.1185 18.613L20.3756 17.8851C20.3406 17.8497 20.2924 17.8297 20.2421 17.8297H20.2421Z" fill="#3498DB"/>
</svg>
