<svg width="26" height="26" viewBox="0 0 26 26" fill="none" xmlns="http://www.w3.org/2000/svg">
<path d="M5.2 0C2.328 0 0 2.28096 0 5.09493V20.3797C0 23.1937 2.328 25.4747 5.2 25.4747H20.8C23.6716 25.4747 26 23.1937 26 20.3797V5.09493C26 2.28096 23.672 0 20.8 0H5.2ZM5.2 0.783836H20.8C23.23 0.783836 25.2 2.71403 25.2 5.09493V20.3797C25.2 22.7606 23.23 24.6908 20.8 24.6908H5.2C2.77 24.6908 0.8 22.7606 0.8 20.3797V5.09493C0.8 2.71403 2.7696 0.783836 5.2 0.783836ZM6.33437 1.95959C3.94037 1.95959 2 3.86076 2 6.20639V19.2675C2 21.6131 3.94037 23.5151 6.33437 23.5151H19.6648C22.0588 23.5151 24 21.6135 24 19.2675V11.9535C24 11.8453 23.9104 11.7575 23.8 11.7575C23.6896 11.7575 23.6 11.8453 23.6 11.9535V19.2675C23.6 21.3968 21.838 23.1232 19.6648 23.1232H6.33516C4.16196 23.1232 2.4 21.3968 2.4 19.2675V6.20639C2.4 4.0771 4.16117 2.35151 6.33437 2.35151H19.8C19.9104 2.35151 20 2.26372 20 2.15555C20 2.04738 19.9104 1.95959 19.8 1.95959H6.33437ZM6.23516 7.05912C5.82957 7.05912 5.45776 7.1929 5.15313 7.412C5.11041 7.42735 5.07431 7.45651 5.05078 7.49467C4.6535 7.82571 4.39531 8.31257 4.39531 8.86179V17.014C4.39531 17.563 4.65299 18.0501 5.05 18.3811C5.07439 18.4234 5.11392 18.4553 5.16094 18.4707C5.46405 18.6861 5.83334 18.8167 6.23516 18.8167H19.7555C20.2641 18.8167 20.7251 18.6124 21.0586 18.2839C21.1125 18.259 21.1524 18.2119 21.1672 18.1553C21.4305 17.8434 21.5953 17.449 21.5953 17.014V8.86179C21.5953 8.42639 21.4301 8.03178 21.1664 7.71971C21.1508 7.66959 21.1153 7.62769 21.068 7.60336C20.7337 7.26867 20.2695 7.05911 19.7555 7.05911L6.23516 7.05912ZM23.8 7.2811C23.6896 7.2811 23.6 7.36889 23.6 7.47706V8.2609C23.6 8.36907 23.6896 8.45686 23.8 8.45686C23.9104 8.45686 24 8.36946 24 8.2609V7.47706C24 7.36889 23.9104 7.2811 23.8 7.2811ZM6.23516 7.45104H19.7555C20.1153 7.45104 20.4395 7.58384 20.6914 7.79626L16.1438 12.859C16.1257 12.8734 16.1104 12.8908 16.0984 12.9103L15.1484 13.9674C14.0149 15.2295 12.0091 15.2066 10.9055 13.9192L10.0461 12.9165C10.0346 12.897 10.0198 12.8797 10.0023 12.8652C10.0018 12.8649 10.0013 12.8647 10.0008 12.8644L5.52344 7.64087C5.73384 7.52322 5.97466 7.45104 6.23516 7.45104L6.23516 7.45104ZM5.2039 7.87816L9.60859 13.016L5.20859 18.0022C4.95364 17.7479 4.79531 17.4002 4.79531 17.014V8.86179C4.79531 8.47795 4.95168 8.13205 5.2039 7.87816ZM20.9602 8.08943C21.1082 8.31119 21.1953 8.576 21.1953 8.86179V17.014C21.1953 17.3036 21.1063 17.572 20.9547 17.7955L16.5391 13.0121L20.9602 8.08943ZM23.8 8.84878C23.6896 8.84878 23.6 8.93656 23.6 9.04473V10.6124C23.6 10.7206 23.6896 10.8084 23.8 10.8084C23.9104 10.8084 24 10.721 24 10.6124V9.04473C24 8.93656 23.9104 8.84878 23.8 8.84878ZM16.2727 13.3084L20.6836 18.0856C20.4327 18.2942 20.1117 18.4247 19.7555 18.4247H6.23515C5.97716 18.4247 5.7387 18.3535 5.52969 18.238L9.86875 13.3199L10.5992 14.1718C11.8556 15.6373 14.158 15.6629 15.4484 14.2262L16.2727 13.3084Z" fill="#3498DB"/>
</svg>
