<svg width="41" height="45" viewBox="0 0 41 45" fill="none" xmlns="http://www.w3.org/2000/svg">
<path d="M17.9375 0C17.5839 0 17.2969 0.288 17.2969 0.642857V24.0645L11.7327 18.8111C11.4809 18.5732 11.0853 18.5787 10.8406 18.8249L7.2208 22.4636C7.09972 22.5857 7.03244 22.7508 7.03436 22.9231C7.03629 23.0954 7.10591 23.2606 7.22955 23.3802L20.0546 35.8179C20.1789 35.9382 20.3392 35.9987 20.5 35.9987C20.6608 35.9987 20.8212 35.9382 20.9454 35.8179L33.7705 23.3802C33.8941 23.2599 33.9644 23.0954 33.9656 22.9231C33.9669 22.7508 33.9003 22.5857 33.7792 22.4636L30.1594 18.8249C29.9147 18.5787 29.5191 18.5732 29.2673 18.8111L23.7031 24.0645V0.642857C23.7031 0.288 23.4161 0 23.0625 0H17.9375ZM18.5781 1.28571H22.4219V25.5523C22.4219 25.8088 22.5734 26.0409 22.8085 26.1424C23.0417 26.2434 23.3153 26.1955 23.5017 26.0206L29.6927 20.1759L32.4129 22.9106L20.5 34.4619L8.58838 22.9093L11.3085 20.1759L17.4983 26.0206C17.6847 26.1961 17.9577 26.2428 18.1915 26.1412C18.426 26.0396 18.5781 25.8082 18.5781 25.5523V1.28571ZM0.640625 34.7143C0.287 34.7143 0 35.0023 0 35.3571V44.3571C0 44.712 0.287 45 0.640625 45H40.3594C40.713 45 41 44.712 41 44.3571V36C41 35.6451 40.713 35.3571 40.3594 35.3571H36.5156C36.162 35.3571 35.875 35.6451 35.875 36V39.8571H5.125V35.3571C5.125 35.0023 4.838 34.7143 4.48438 34.7143H0.640625ZM1.28125 36H3.84375V40.5C3.84375 40.8549 4.13075 41.1429 4.48438 41.1429H36.5156C36.8693 41.1429 37.1562 40.8549 37.1562 40.5V36.6429H39.7188V43.7143H1.28125V36ZM7.36719 37.9286C7.19038 37.9286 7.04688 38.0726 7.04688 38.25C7.04688 38.4274 7.19038 38.5714 7.36719 38.5714H27.2266C27.4034 38.5714 27.5469 38.4274 27.5469 38.25C27.5469 38.0726 27.4034 37.9286 27.2266 37.9286H7.36719ZM29.1484 37.9286C28.9716 37.9286 28.8281 38.0726 28.8281 38.25C28.8281 38.4274 28.9716 38.5714 29.1484 38.5714H31.0703C31.2471 38.5714 31.3906 38.4274 31.3906 38.25C31.3906 38.0726 31.2471 37.9286 31.0703 37.9286H29.1484ZM32.3516 37.9286C32.1748 37.9286 32.0312 38.0726 32.0312 38.25C32.0312 38.4274 32.1748 38.5714 32.3516 38.5714H33.6328C33.8096 38.5714 33.9531 38.4274 33.9531 38.25C33.9531 38.0726 33.8096 37.9286 33.6328 37.9286H32.3516Z" fill="#3498DB"/>
</svg>
