<svg width="41" height="40" viewBox="0 0 41 40" fill="none" xmlns="http://www.w3.org/2000/svg">
<path d="M20.5 0.474609C9.1849 0.474609 0 9.21147 0 19.9746C0 30.7377 9.1849 39.4746 20.5 39.4746C31.8151 39.4746 41 30.7377 41 19.9746C41 9.21147 31.8151 0.474609 20.5 0.474609ZM20.5 1.55794C31.1996 1.55794 39.8611 9.79695 39.8611 19.9746C39.8611 30.1523 31.1996 38.3913 20.5 38.3913C9.8004 38.3913 1.13889 30.1523 1.13889 19.9746C1.13889 9.79695 9.8004 1.55794 20.5 1.55794ZM20.5 3.18294C10.7538 3.18294 2.84722 10.7039 2.84722 19.9746C2.84722 29.2453 10.7538 36.7663 20.5 36.7663C30.2462 36.7663 38.1528 29.2453 38.1528 19.9746C38.1528 15.0478 35.92 10.6129 32.3649 7.54167C32.2902 7.47329 32.1823 7.44896 32.0832 7.47816C31.9842 7.50736 31.9096 7.58547 31.8887 7.68207C31.8677 7.77866 31.9035 7.87847 31.9823 7.94263C35.4234 10.9153 37.5833 15.2034 37.5833 19.9746C37.5833 28.9526 29.9384 36.2246 20.5 36.2246C11.0616 36.2246 3.41667 28.9526 3.41667 19.9746C3.41667 10.9966 11.0616 3.72461 20.5 3.72461C22.5675 3.72461 24.5476 4.07449 26.3813 4.71379C26.4769 4.74706 26.5838 4.72931 26.6619 4.66721C26.74 4.60512 26.7773 4.50812 26.7598 4.41276C26.7423 4.3174 26.6726 4.23817 26.577 4.20492C24.682 3.54421 22.635 3.18295 20.5 3.18295V3.18294ZM28.1764 4.88411C28.0447 4.88719 27.9324 4.97579 27.9049 5.09833C27.8774 5.22087 27.9418 5.34536 28.0607 5.39933C28.4421 5.57886 28.8164 5.77175 29.1818 5.97697C29.2695 6.02857 29.3798 6.03099 29.4699 5.98331C29.5601 5.93562 29.6161 5.84528 29.6163 5.74715C29.6165 5.64903 29.5609 5.55847 29.471 5.51042C29.0938 5.29855 28.7085 5.0993 28.3143 4.91374C28.2717 4.89299 28.2242 4.88281 28.1764 4.88412V4.88411ZM30.4697 6.16846C30.4601 6.16834 30.4504 6.1687 30.4408 6.16951C30.3201 6.17807 30.2182 6.25833 30.1869 6.36959C30.1556 6.48086 30.2017 6.59878 30.3018 6.66357C30.4912 6.78993 30.6778 6.92044 30.8612 7.05395C30.9421 7.11293 31.0499 7.12638 31.144 7.08925C31.2381 7.05212 31.3042 6.97005 31.3175 6.87395C31.3307 6.77785 31.2891 6.68233 31.2082 6.62337C31.0181 6.48497 30.8243 6.35069 30.6288 6.2203C30.5824 6.18818 30.527 6.17012 30.4697 6.16846H30.4697ZM28.6858 11.3079C28.1739 11.3079 27.6758 11.5318 27.6748 11.5322L8.96875 18.7358C8.94174 18.7442 8.73532 18.811 8.5083 18.9548C8.2661 19.1082 7.97222 19.374 7.97222 19.7725C7.97222 20.1984 8.24596 20.4974 8.48717 20.6623C8.72837 20.8272 8.96875 20.894 8.96875 20.894C8.97097 20.8943 8.9732 20.8947 8.97542 20.895L13.3041 22.0122C13.3489 22.1315 13.8377 23.4316 14.3762 24.8634C14.6576 25.6113 14.9406 26.3618 15.1559 26.9327C15.2635 27.2181 15.3542 27.4585 15.4195 27.6309C15.4522 27.7172 15.4784 27.7866 15.4973 27.8362C15.5163 27.8858 15.5199 27.8985 15.534 27.9314C15.6487 28.1982 15.7524 28.3527 15.8521 28.453C15.902 28.5031 15.9525 28.5392 16.0012 28.564C16.0131 28.5701 16.0242 28.5731 16.0356 28.5778C16.0375 28.5789 16.0393 28.5799 16.0412 28.581C16.0431 28.5818 16.0449 28.5823 16.0468 28.5831C16.0548 28.5861 16.0633 28.5903 16.0712 28.5926C16.0808 28.5954 16.0864 28.5957 16.0979 28.5979C16.1896 28.6292 16.2822 28.6433 16.3671 28.6381C16.643 28.6274 16.8364 28.4826 16.8364 28.4826C16.8426 28.4779 16.8485 28.4729 16.8542 28.4678L19.6747 25.989L23.9389 29.421C23.9389 29.421 24.0437 29.5104 24.2047 29.5828C24.3657 29.6553 24.601 29.7246 24.8998 29.7246C25.454 29.7246 25.8285 29.4888 26.0265 29.2496C26.2245 29.0104 26.2712 28.7576 26.2712 28.7576V28.7619C26.2712 28.7619 27.0946 24.7017 27.9217 20.6231C28.3352 18.5839 28.7495 16.5402 29.0617 14.997C29.2178 14.2254 29.3487 13.5784 29.4409 13.1202C29.487 12.8911 29.5235 12.709 29.5488 12.5817C29.5615 12.5181 29.5719 12.4681 29.5789 12.4325C29.5858 12.397 29.5866 12.3994 29.5922 12.3606C29.6031 12.2853 29.6111 12.2039 29.6111 12.1204C29.6111 11.879 29.4987 11.6577 29.3231 11.5164C29.1474 11.375 28.9207 11.3079 28.6858 11.3079H28.6858ZM28.6858 11.8496C28.8068 11.8496 28.9003 11.8841 28.956 11.929C29.0117 11.9738 29.0417 12.0234 29.0417 12.1204C29.0417 12.1681 29.0367 12.2286 29.0283 12.2865C29.0326 12.2569 29.0251 12.2997 29.0183 12.3341C29.0116 12.3686 29.002 12.4179 28.9894 12.4812C28.9641 12.6079 28.9276 12.7897 28.8815 13.0186C28.7894 13.4766 28.6594 14.1228 28.5034 14.8944C28.1913 16.4374 27.7769 18.4813 27.3634 20.5205C26.5363 24.5989 25.7118 28.6593 25.7118 28.6593C25.7114 28.6607 25.711 28.6621 25.7106 28.6635C25.7106 28.6635 25.689 28.7818 25.5794 28.9142C25.4698 29.0466 25.2984 29.1829 24.8998 29.1829C24.6919 29.1829 24.5438 29.137 24.4483 29.0941C24.3528 29.0511 24.3271 29.0253 24.3271 29.0253C24.3238 29.0221 24.3205 29.0189 24.3171 29.0158L17.4359 23.4764L25.9331 15.7894L25.9108 15.8074C26.0979 15.6704 26.1944 15.4615 26.1944 15.2541C26.1944 15.2537 26.1944 15.2534 26.1944 15.253C26.1935 15.1082 26.1454 14.9599 26.0465 14.8351C25.9082 14.6583 25.6931 14.5591 25.476 14.5579H25.4749C25.318 14.5572 25.1603 14.6075 25.03 14.7029L25.0533 14.687L13.5221 21.4758L13.6656 21.5531C13.6445 21.5419 13.6221 21.5334 13.5988 21.5277L9.12669 20.3735L9.12446 20.3724C9.11928 20.3709 8.9722 20.3275 8.81972 20.2232C8.66462 20.1172 8.54167 19.9853 8.54167 19.7725C8.54167 19.6376 8.65695 19.5114 8.82417 19.4054C8.9914 19.2995 9.16339 19.2446 9.16339 19.2446C9.16977 19.2427 9.17607 19.2406 9.1823 19.2383L27.8961 12.0316C27.8987 12.0306 27.9013 12.0295 27.9039 12.0284C27.9039 12.0284 28.3668 11.8496 28.6858 11.8496L28.6858 11.8496ZM25.4726 15.0996C25.516 15.0998 25.557 15.116 25.5905 15.1589C25.5909 15.1592 25.5913 15.1596 25.5916 15.1599C25.6134 15.1872 25.6246 15.2202 25.625 15.2551C25.6247 15.303 25.6032 15.3493 25.5627 15.3789C25.555 15.3845 25.5476 15.3905 25.5405 15.3969L16.8131 23.2923C16.768 23.3333 16.7383 23.3872 16.7285 23.4457H16.7263L16.0056 27.5812C15.9901 27.5404 15.9758 27.5043 15.9544 27.4479C15.8893 27.276 15.7984 27.035 15.6909 26.7497C15.4757 26.1791 15.1937 25.4282 14.9123 24.6803C14.3884 23.2875 13.9381 22.0911 13.8691 21.9075L25.3536 15.1472C25.3617 15.1423 25.3695 15.137 25.377 15.1313C25.4092 15.1078 25.4419 15.0994 25.4726 15.0996L25.4726 15.0996ZM17.2068 24.0022L19.2365 25.6367L16.5039 28.0383L17.2068 24.0022Z" fill="#2D9CDB"/>
</svg>
