<svg width="68" height="68" viewBox="0 0 68 68" fill="none" xmlns="http://www.w3.org/2000/svg">
<path d="M28.6316 0C27.1598 0 25.9474 1.21239 25.9474 2.68421V25.9474H2.68421C1.21239 25.9474 0 27.1598 0 28.6316V39.3684C0 40.8402 1.21239 42.0526 2.68421 42.0526H25.9474V65.3158C25.9474 66.7876 27.1598 68 28.6316 68H39.3684C40.8402 68 42.0526 66.7876 42.0526 65.3158V42.0526H65.3158C66.7876 42.0526 68 40.8402 68 39.3684V28.6316C68 27.1598 66.7876 25.9474 65.3158 25.9474H42.0526V2.68421C42.0526 1.21239 40.8402 0 39.3684 0H28.6316ZM28.6316 1.78947H39.3684C39.874 1.78947 40.2632 2.17866 40.2632 2.68421V27.7368H65.3158C65.8213 27.7368 66.2105 28.126 66.2105 28.6316V39.3684C66.2105 39.874 65.8213 40.2632 65.3158 40.2632H40.2632V65.3158C40.2632 65.8213 39.874 66.2105 39.3684 66.2105H28.6316C28.126 66.2105 27.7368 65.8213 27.7368 65.3158V40.2632H2.68421C2.17866 40.2632 1.78947 39.874 1.78947 39.3684V28.6316C1.78947 28.126 2.17866 27.7368 2.68421 27.7368H27.7368V2.68421C27.7368 2.17866 28.126 1.78947 28.6316 1.78947ZM37.1246 4.46669C37.0059 4.46855 36.8929 4.51745 36.8103 4.60266C36.7277 4.68787 36.6824 4.8024 36.6842 4.92105V30.8684C36.6842 31.1155 36.8845 31.3158 37.1316 31.3158H46.9737C47.135 31.3181 47.2851 31.2333 47.3664 31.0939C47.4478 30.9546 47.4478 30.7822 47.3664 30.6429C47.2851 30.5035 47.135 30.4188 46.9737 30.421H37.5789V4.92105C37.5808 4.79997 37.5336 4.6833 37.448 4.59768C37.3623 4.51205 37.2457 4.46479 37.1246 4.46669V4.46669ZM49.6579 30.4211C49.4966 30.4188 49.3465 30.5035 49.2652 30.6429C49.1838 30.7822 49.1838 30.9546 49.2652 31.094C49.3465 31.2333 49.4966 31.3181 49.6579 31.3158H58.6053C58.7666 31.3181 58.9167 31.2333 58.998 31.094C59.0793 30.9546 59.0793 30.7822 58.998 30.6429C58.9167 30.5035 58.7666 30.4188 58.6053 30.4211H49.6579ZM61.2895 30.4211C61.1281 30.4188 60.9781 30.5035 60.8967 30.6429C60.8154 30.7822 60.8154 30.9546 60.8967 31.094C60.9781 31.2333 61.1281 31.3181 61.2895 31.3158H63.0789C63.2403 31.3181 63.3904 31.2333 63.4717 31.094C63.553 30.9546 63.553 30.7822 63.4717 30.6429C63.3904 30.5035 63.2403 30.4188 63.0789 30.4211H61.2895Z" fill="#CCCCCC"/>
</svg>
