<svg width="17" height="17" viewBox="0 0 17 17" fill="none" xmlns="http://www.w3.org/2000/svg">
<path d="M11.6875 0H5.3125C2.37894 0 0 2.37894 0 5.3125V11.6875C0 14.6211 2.37894 17 5.3125 17H11.6875C14.6211 17 17 14.6211 17 11.6875V5.3125C17 2.37894 14.6211 0 11.6875 0ZM15.4062 11.6875C15.4062 13.7381 13.7381 15.4062 11.6875 15.4062H5.3125C3.26188 15.4062 1.59375 13.7381 1.59375 11.6875V5.3125C1.59375 3.26188 3.26188 1.59375 5.3125 1.59375H11.6875C13.7381 1.59375 15.4062 3.26188 15.4062 5.3125V11.6875Z" fill="black"/>
<path d="M8.5 4.25C6.15294 4.25 4.25 6.15294 4.25 8.5C4.25 10.8471 6.15294 12.75 8.5 12.75C10.8471 12.75 12.75 10.8471 12.75 8.5C12.75 6.15294 10.8471 4.25 8.5 4.25ZM8.5 11.1562C7.03588 11.1562 5.84375 9.96413 5.84375 8.5C5.84375 7.03481 7.03588 5.84375 8.5 5.84375C9.96413 5.84375 11.1562 7.03481 11.1562 8.5C11.1562 9.96413 9.96413 11.1562 8.5 11.1562Z" fill="black"/>
<path d="M13.0687 4.49757C13.3815 4.49757 13.635 4.24402 13.635 3.93125C13.635 3.61849 13.3815 3.36494 13.0687 3.36494C12.7559 3.36494 12.5024 3.61849 12.5024 3.93125C12.5024 4.24402 12.7559 4.49757 13.0687 4.49757Z" fill="black"/>
</svg>
