<svg width="32" height="32" viewBox="0 0 32 32" fill="none" xmlns="http://www.w3.org/2000/svg">
<path d="M29.5782 15.7804L16.7063 2.91794C16.6137 2.82508 16.5036 2.75141 16.3824 2.70114C16.2612 2.65087 16.1313 2.625 16.0001 2.625C15.8689 2.625 15.739 2.65087 15.6178 2.70114C15.4966 2.75141 15.3865 2.82508 15.2938 2.91794L2.42197 15.7804C2.04697 16.1554 1.83447 16.6648 1.83447 17.1961C1.83447 18.2992 2.73135 19.1961 3.83447 19.1961H5.19072V28.3742C5.19072 28.9273 5.6376 29.3742 6.19072 29.3742H14.0001V22.3742H17.5001V29.3742H25.8095C26.3626 29.3742 26.8095 28.9273 26.8095 28.3742V19.1961H28.1657C28.697 19.1961 29.2063 18.9867 29.5813 18.6086C30.3595 17.8273 30.3595 16.5617 29.5782 15.7804V15.7804Z" fill="#828282"/>
</svg>
